<mxfile modified="2022-08-19T05:52:27.714Z" host="app.diagrams.net" agent="5.0 (Windows NT 10.0; Win64; x64) AppleWebKit/537.36 (KHTML, like Gecko) Chrome/104.0.0.0 Safari/537.36" etag="6LeCvZ-LP1W5Jk_LHJC9" version="20.2.5" type="github">
  <diagram id="Ht1M8jgEwFfnCIfOTk4-" name="Page-1">
    <mxGraphModel dx="942" dy="557" grid="1" gridSize="10" guides="1" tooltips="1" connect="1" arrows="1" fold="1" page="1" pageScale="1" pageWidth="1169" pageHeight="827" math="0" shadow="0">
      <root>
        <mxCell id="0" />
        <mxCell id="1" parent="0" />
        <mxCell id="UEzPUAAOIrF-is8g5C7q-128" style="edgeStyle=orthogonalEdgeStyle;rounded=0;orthogonalLoop=1;jettySize=auto;html=1;startArrow=open;startFill=0;endArrow=open;endFill=0;strokeWidth=2;strokeColor=#808080;" parent="1" source="UEzPUAAOIrF-is8g5C7q-109" edge="1">
          <mxGeometry relative="1" as="geometry">
            <Array as="points">
              <mxPoint x="311" y="461" />
              <mxPoint x="311" y="310" />
            </Array>
            <mxPoint x="369.5" y="310" as="targetPoint" />
          </mxGeometry>
        </mxCell>
        <mxCell id="UEzPUAAOIrF-is8g5C7q-127" style="edgeStyle=orthogonalEdgeStyle;rounded=0;orthogonalLoop=1;jettySize=auto;html=1;startArrow=open;startFill=0;endArrow=open;endFill=0;strokeWidth=2;strokeColor=#808080;" parent="1" source="UEzPUAAOIrF-is8g5C7q-110" edge="1">
          <mxGeometry relative="1" as="geometry">
            <Array as="points">
              <mxPoint x="312" y="161" />
              <mxPoint x="312" y="300" />
            </Array>
            <mxPoint x="369.5" y="300" as="targetPoint" />
          </mxGeometry>
        </mxCell>
        <mxCell id="UEzPUAAOIrF-is8g5C7q-109" value="data lake CLI" style="outlineConnect=0;gradientColor=none;fontColor=#545B64;strokeColor=none;fillColor=#879196;dashed=0;verticalLabelPosition=bottom;verticalAlign=top;align=center;html=1;fontSize=12;fontStyle=0;aspect=fixed;shape=mxgraph.aws4.illustration_desktop;pointerEvents=1;labelBackgroundColor=#ffffff;" parent="1" vertex="1">
          <mxGeometry x="160.5" y="415.5" width="100" height="91" as="geometry" />
        </mxCell>
        <mxCell id="UEzPUAAOIrF-is8g5C7q-110" value="data lake console" style="outlineConnect=0;gradientColor=none;fontColor=#545B64;strokeColor=none;fillColor=#879196;dashed=0;verticalLabelPosition=bottom;verticalAlign=top;align=center;html=1;fontSize=12;fontStyle=0;aspect=fixed;shape=mxgraph.aws4.illustration_notification;pointerEvents=1;labelBackgroundColor=#ffffff;" parent="1" vertex="1">
          <mxGeometry x="160.5" y="120.5" width="100" height="81" as="geometry" />
        </mxCell>
        <mxCell id="5Y_uD3nfGztvVaCbQK5E-3" value="Digital Ocean Linux Server" style="image;html=1;image=img/lib/clip_art/computers/Server_128x128.png;whiteSpace=wrap;" vertex="1" parent="1">
          <mxGeometry x="370" y="250" width="100" height="110" as="geometry" />
        </mxCell>
        <mxCell id="5Y_uD3nfGztvVaCbQK5E-5" value="Nginx Proxy Manager" style="shadow=0;dashed=0;html=1;strokeColor=none;fillColor=#4495D1;labelPosition=center;verticalLabelPosition=bottom;verticalAlign=top;align=center;outlineConnect=0;shape=mxgraph.veeam.proxy_server;" vertex="1" parent="1">
          <mxGeometry x="580" y="269" width="76" height="72" as="geometry" />
        </mxCell>
        <mxCell id="5Y_uD3nfGztvVaCbQK5E-11" value="Membership API" style="shape=image;html=1;verticalAlign=top;verticalLabelPosition=bottom;labelBackgroundColor=#ffffff;imageAspect=0;aspect=fixed;image=https://cdn1.iconfinder.com/data/icons/unicons-line-vol-3/24/docker-128.png" vertex="1" parent="1">
          <mxGeometry x="744" y="30" width="110" height="110" as="geometry" />
        </mxCell>
        <mxCell id="UEzPUAAOIrF-is8g5C7q-119" value="Postgres DB" style="outlineConnect=0;fontColor=#232F3E;gradientColor=#4D72F3;gradientDirection=north;fillColor=#3334B9;strokeColor=#ffffff;dashed=0;verticalLabelPosition=bottom;verticalAlign=top;align=center;html=1;fontSize=12;fontStyle=0;aspect=fixed;shape=mxgraph.aws4.resourceIcon;resIcon=mxgraph.aws4.dynamodb;labelBackgroundColor=#ffffff;spacingTop=5;" parent="1" vertex="1">
          <mxGeometry x="1052.01" y="150" width="60" height="60" as="geometry" />
        </mxCell>
        <mxCell id="5Y_uD3nfGztvVaCbQK5E-13" value="Azure Blob Service" style="verticalLabelPosition=bottom;html=1;verticalAlign=top;align=center;strokeColor=none;fillColor=#00BEF2;shape=mxgraph.azure.bitbucket_code_source;" vertex="1" parent="1">
          <mxGeometry x="1052.0100000000002" y="260" width="60.25" height="61" as="geometry" />
        </mxCell>
        <mxCell id="5Y_uD3nfGztvVaCbQK5E-14" value="Report Service on Azure App Service" style="shape=image;html=1;verticalAlign=top;verticalLabelPosition=bottom;labelBackgroundColor=#ffffff;imageAspect=0;aspect=fixed;image=https://cdn2.iconfinder.com/data/icons/maternity-and-pregnancy-2/512/380_chart_data_graph_reports_valuation_data_economy_media-128.png;whiteSpace=wrap;" vertex="1" parent="1">
          <mxGeometry x="1052.01" y="364" width="80" height="80" as="geometry" />
        </mxCell>
        <mxCell id="5Y_uD3nfGztvVaCbQK5E-15" value="Azure Computer Vision&lt;br&gt;For OCR" style="verticalLabelPosition=bottom;html=1;verticalAlign=top;align=center;strokeColor=none;fillColor=#00BEF2;shape=mxgraph.azure.automation;pointerEvents=1;" vertex="1" parent="1">
          <mxGeometry x="1046.14" y="535.5" width="72" height="55.5" as="geometry" />
        </mxCell>
        <mxCell id="5Y_uD3nfGztvVaCbQK5E-19" style="edgeStyle=orthogonalEdgeStyle;rounded=0;orthogonalLoop=1;jettySize=auto;html=1;startArrow=open;startFill=0;endArrow=open;endFill=0;strokeWidth=2;strokeColor=#808080;" edge="1" parent="1" source="5Y_uD3nfGztvVaCbQK5E-5">
          <mxGeometry relative="1" as="geometry">
            <Array as="points">
              <mxPoint x="680" y="280" />
              <mxPoint x="680" y="80" />
            </Array>
            <mxPoint x="690" y="311.1" as="sourcePoint" />
            <mxPoint x="750" y="80" as="targetPoint" />
          </mxGeometry>
        </mxCell>
        <mxCell id="5Y_uD3nfGztvVaCbQK5E-20" style="edgeStyle=orthogonalEdgeStyle;rounded=0;orthogonalLoop=1;jettySize=auto;html=1;startArrow=open;startFill=0;endArrow=open;endFill=0;strokeWidth=2;strokeColor=#808080;" edge="1" parent="1" target="5Y_uD3nfGztvVaCbQK5E-5">
          <mxGeometry relative="1" as="geometry">
            <Array as="points">
              <mxPoint x="520" y="300" />
              <mxPoint x="520" y="300" />
            </Array>
            <mxPoint x="480" y="300" as="sourcePoint" />
            <mxPoint x="760" y="90" as="targetPoint" />
          </mxGeometry>
        </mxCell>
        <mxCell id="5Y_uD3nfGztvVaCbQK5E-21" value="Membership &lt;br&gt;Client" style="shape=image;html=1;verticalAlign=top;verticalLabelPosition=bottom;labelBackgroundColor=#ffffff;imageAspect=0;aspect=fixed;image=https://cdn1.iconfinder.com/data/icons/unicons-line-vol-3/24/docker-128.png" vertex="1" parent="1">
          <mxGeometry x="740" y="170" width="110" height="110" as="geometry" />
        </mxCell>
        <mxCell id="5Y_uD3nfGztvVaCbQK5E-22" value="Membership&amp;nbsp;&lt;br&gt;Notification Service" style="shape=image;html=1;verticalAlign=top;verticalLabelPosition=bottom;labelBackgroundColor=#ffffff;imageAspect=0;aspect=fixed;image=https://cdn1.iconfinder.com/data/icons/unicons-line-vol-3/24/docker-128.png" vertex="1" parent="1">
          <mxGeometry x="743" y="329" width="110" height="110" as="geometry" />
        </mxCell>
        <mxCell id="5Y_uD3nfGztvVaCbQK5E-29" value="Nginx Proxy" style="shape=image;html=1;verticalAlign=top;verticalLabelPosition=bottom;labelBackgroundColor=#ffffff;imageAspect=0;aspect=fixed;image=https://cdn1.iconfinder.com/data/icons/unicons-line-vol-3/24/docker-128.png" vertex="1" parent="1">
          <mxGeometry x="740" y="490" width="110" height="110" as="geometry" />
        </mxCell>
        <mxCell id="5Y_uD3nfGztvVaCbQK5E-30" value="Portainer" style="shape=image;html=1;verticalAlign=top;verticalLabelPosition=bottom;labelBackgroundColor=#ffffff;imageAspect=0;aspect=fixed;image=https://cdn1.iconfinder.com/data/icons/unicons-line-vol-3/24/docker-128.png" vertex="1" parent="1">
          <mxGeometry x="740" y="660" width="110" height="110" as="geometry" />
        </mxCell>
        <mxCell id="5Y_uD3nfGztvVaCbQK5E-31" style="edgeStyle=orthogonalEdgeStyle;rounded=0;orthogonalLoop=1;jettySize=auto;html=1;startArrow=open;startFill=0;endArrow=open;endFill=0;strokeWidth=2;strokeColor=#808080;" edge="1" parent="1" target="5Y_uD3nfGztvVaCbQK5E-21">
          <mxGeometry relative="1" as="geometry">
            <Array as="points">
              <mxPoint x="690" y="300" />
              <mxPoint x="690" y="225" />
            </Array>
            <mxPoint x="660" y="300" as="sourcePoint" />
            <mxPoint x="760" y="90" as="targetPoint" />
          </mxGeometry>
        </mxCell>
        <mxCell id="5Y_uD3nfGztvVaCbQK5E-32" style="edgeStyle=orthogonalEdgeStyle;rounded=0;orthogonalLoop=1;jettySize=auto;html=1;startArrow=open;startFill=0;endArrow=open;endFill=0;strokeWidth=2;strokeColor=#808080;" edge="1" parent="1">
          <mxGeometry relative="1" as="geometry">
            <Array as="points">
              <mxPoint x="710" y="320" />
              <mxPoint x="710" y="389" />
            </Array>
            <mxPoint x="660" y="320" as="sourcePoint" />
            <mxPoint x="750" y="389" as="targetPoint" />
          </mxGeometry>
        </mxCell>
        <mxCell id="5Y_uD3nfGztvVaCbQK5E-33" style="edgeStyle=orthogonalEdgeStyle;rounded=0;orthogonalLoop=1;jettySize=auto;html=1;startArrow=open;startFill=0;endArrow=open;endFill=0;strokeWidth=2;strokeColor=#808080;" edge="1" parent="1" target="5Y_uD3nfGztvVaCbQK5E-29">
          <mxGeometry relative="1" as="geometry">
            <Array as="points">
              <mxPoint x="690" y="330" />
              <mxPoint x="690" y="550" />
            </Array>
            <mxPoint x="670" y="330" as="sourcePoint" />
            <mxPoint x="760" y="399" as="targetPoint" />
          </mxGeometry>
        </mxCell>
        <mxCell id="5Y_uD3nfGztvVaCbQK5E-34" style="edgeStyle=orthogonalEdgeStyle;rounded=0;orthogonalLoop=1;jettySize=auto;html=1;startArrow=open;startFill=0;endArrow=open;endFill=0;strokeWidth=2;strokeColor=#808080;" edge="1" parent="1" source="5Y_uD3nfGztvVaCbQK5E-5" target="5Y_uD3nfGztvVaCbQK5E-30">
          <mxGeometry relative="1" as="geometry">
            <Array as="points">
              <mxPoint x="700" y="305" />
              <mxPoint x="700" y="710" />
            </Array>
            <mxPoint x="660" y="490" as="sourcePoint" />
            <mxPoint x="730" y="710" as="targetPoint" />
          </mxGeometry>
        </mxCell>
        <mxCell id="5Y_uD3nfGztvVaCbQK5E-35" value="RabbitMQ" style="shape=image;html=1;verticalAlign=top;verticalLabelPosition=bottom;labelBackgroundColor=#ffffff;imageAspect=0;aspect=fixed;image=https://cdn1.iconfinder.com/data/icons/unicons-line-vol-3/24/docker-128.png" vertex="1" parent="1">
          <mxGeometry x="1039.14" y="30" width="90" height="90" as="geometry" />
        </mxCell>
        <mxCell id="5Y_uD3nfGztvVaCbQK5E-38" value="" style="shape=message;html=1;whiteSpace=wrap;html=1;outlineConnect=0;" vertex="1" parent="1">
          <mxGeometry x="919" y="54.5" width="60" height="41" as="geometry" />
        </mxCell>
        <mxCell id="5Y_uD3nfGztvVaCbQK5E-39" value="" style="shape=message;html=1;whiteSpace=wrap;html=1;outlineConnect=0;" vertex="1" parent="1">
          <mxGeometry x="919" y="364" width="60" height="40" as="geometry" />
        </mxCell>
        <mxCell id="5Y_uD3nfGztvVaCbQK5E-40" value="Maria DB for &lt;br&gt;Nginx Proxy" style="shape=image;html=1;verticalAlign=top;verticalLabelPosition=bottom;labelBackgroundColor=#ffffff;imageAspect=0;aspect=fixed;image=https://cdn1.iconfinder.com/data/icons/unicons-line-vol-3/24/docker-128.png" vertex="1" parent="1">
          <mxGeometry x="1027.1399999999999" y="640" width="110" height="110" as="geometry" />
        </mxCell>
        <mxCell id="5Y_uD3nfGztvVaCbQK5E-42" style="edgeStyle=orthogonalEdgeStyle;rounded=0;orthogonalLoop=1;jettySize=auto;html=1;startArrow=open;startFill=0;endArrow=open;endFill=0;strokeWidth=2;strokeColor=#808080;" edge="1" parent="1">
          <mxGeometry relative="1" as="geometry">
            <Array as="points">
              <mxPoint x="879" y="74.5" />
              <mxPoint x="879" y="74.5" />
            </Array>
            <mxPoint x="859" y="75" as="sourcePoint" />
            <mxPoint x="919" y="74.5" as="targetPoint" />
          </mxGeometry>
        </mxCell>
        <mxCell id="5Y_uD3nfGztvVaCbQK5E-43" style="edgeStyle=orthogonalEdgeStyle;rounded=0;orthogonalLoop=1;jettySize=auto;html=1;startArrow=open;startFill=0;endArrow=open;endFill=0;strokeWidth=2;strokeColor=#808080;entryX=-0.046;entryY=0.656;entryDx=0;entryDy=0;entryPerimeter=0;" edge="1" parent="1" target="5Y_uD3nfGztvVaCbQK5E-35">
          <mxGeometry relative="1" as="geometry">
            <Array as="points">
              <mxPoint x="1000" y="379" />
              <mxPoint x="1000" y="89" />
            </Array>
            <mxPoint x="979" y="379" as="sourcePoint" />
            <mxPoint x="1069" y="448" as="targetPoint" />
          </mxGeometry>
        </mxCell>
        <mxCell id="5Y_uD3nfGztvVaCbQK5E-44" style="edgeStyle=orthogonalEdgeStyle;rounded=0;orthogonalLoop=1;jettySize=auto;html=1;startArrow=open;startFill=0;endArrow=open;endFill=0;strokeWidth=2;strokeColor=#808080;" edge="1" parent="1">
          <mxGeometry relative="1" as="geometry">
            <Array as="points">
              <mxPoint x="1004" y="74.5" />
              <mxPoint x="1004" y="74.5" />
            </Array>
            <mxPoint x="984" y="75" as="sourcePoint" />
            <mxPoint x="1044" y="74.5" as="targetPoint" />
          </mxGeometry>
        </mxCell>
        <mxCell id="5Y_uD3nfGztvVaCbQK5E-45" style="edgeStyle=orthogonalEdgeStyle;rounded=0;orthogonalLoop=1;jettySize=auto;html=1;startArrow=open;startFill=0;endArrow=open;endFill=0;strokeWidth=2;strokeColor=#808080;exitX=1.036;exitY=0.682;exitDx=0;exitDy=0;exitPerimeter=0;" edge="1" parent="1" source="5Y_uD3nfGztvVaCbQK5E-11">
          <mxGeometry relative="1" as="geometry">
            <Array as="points">
              <mxPoint x="960" y="105" />
              <mxPoint x="960" y="175" />
            </Array>
            <mxPoint x="966.14" y="250" as="sourcePoint" />
            <mxPoint x="1046.1399999999999" y="175" as="targetPoint" />
          </mxGeometry>
        </mxCell>
        <mxCell id="5Y_uD3nfGztvVaCbQK5E-46" style="edgeStyle=orthogonalEdgeStyle;rounded=0;orthogonalLoop=1;jettySize=auto;html=1;startArrow=open;startFill=0;endArrow=open;endFill=0;strokeWidth=2;strokeColor=#808080;" edge="1" parent="1" source="5Y_uD3nfGztvVaCbQK5E-22">
          <mxGeometry relative="1" as="geometry">
            <Array as="points">
              <mxPoint x="1010" y="410" />
              <mxPoint x="1010" y="185" />
            </Array>
            <mxPoint x="870" y="360" as="sourcePoint" />
            <mxPoint x="1056.1399999999999" y="185" as="targetPoint" />
          </mxGeometry>
        </mxCell>
        <mxCell id="5Y_uD3nfGztvVaCbQK5E-48" style="edgeStyle=orthogonalEdgeStyle;rounded=0;orthogonalLoop=1;jettySize=auto;html=1;startArrow=open;startFill=0;endArrow=open;endFill=0;strokeWidth=2;strokeColor=#808080;" edge="1" parent="1" target="5Y_uD3nfGztvVaCbQK5E-40">
          <mxGeometry relative="1" as="geometry">
            <Array as="points">
              <mxPoint x="890" y="550" />
              <mxPoint x="890" y="690" />
            </Array>
            <mxPoint x="840" y="550" as="sourcePoint" />
            <mxPoint x="930" y="619" as="targetPoint" />
          </mxGeometry>
        </mxCell>
        <mxCell id="5Y_uD3nfGztvVaCbQK5E-49" style="edgeStyle=orthogonalEdgeStyle;rounded=0;orthogonalLoop=1;jettySize=auto;html=1;startArrow=open;startFill=0;endArrow=open;endFill=0;strokeWidth=2;strokeColor=#808080;" edge="1" parent="1">
          <mxGeometry relative="1" as="geometry">
            <Array as="points">
              <mxPoint x="860" y="90" />
              <mxPoint x="910" y="90" />
              <mxPoint x="910" y="290" />
            </Array>
            <mxPoint x="860" y="90" as="sourcePoint" />
            <mxPoint x="1050" y="290" as="targetPoint" />
          </mxGeometry>
        </mxCell>
        <mxCell id="5Y_uD3nfGztvVaCbQK5E-50" style="edgeStyle=orthogonalEdgeStyle;rounded=0;orthogonalLoop=1;jettySize=auto;html=1;startArrow=open;startFill=0;endArrow=open;endFill=0;strokeWidth=2;strokeColor=#808080;" edge="1" parent="1" source="5Y_uD3nfGztvVaCbQK5E-11" target="5Y_uD3nfGztvVaCbQK5E-14">
          <mxGeometry relative="1" as="geometry">
            <Array as="points">
              <mxPoint x="880" y="100" />
              <mxPoint x="880" y="430" />
            </Array>
            <mxPoint x="870" y="100" as="sourcePoint" />
            <mxPoint x="1060" y="300" as="targetPoint" />
          </mxGeometry>
        </mxCell>
        <mxCell id="5Y_uD3nfGztvVaCbQK5E-51" style="edgeStyle=orthogonalEdgeStyle;rounded=0;orthogonalLoop=1;jettySize=auto;html=1;startArrow=open;startFill=0;endArrow=open;endFill=0;strokeWidth=2;strokeColor=#808080;" edge="1" parent="1">
          <mxGeometry relative="1" as="geometry">
            <Array as="points">
              <mxPoint x="900" y="110" />
              <mxPoint x="900" y="570" />
            </Array>
            <mxPoint x="864" y="110" as="sourcePoint" />
            <mxPoint x="1060" y="570" as="targetPoint" />
          </mxGeometry>
        </mxCell>
        <mxCell id="5Y_uD3nfGztvVaCbQK5E-52" style="edgeStyle=orthogonalEdgeStyle;rounded=0;orthogonalLoop=1;jettySize=auto;html=1;startArrow=open;startFill=0;endArrow=open;endFill=0;strokeWidth=2;strokeColor=#808080;" edge="1" parent="1">
          <mxGeometry relative="1" as="geometry">
            <Array as="points">
              <mxPoint x="870" y="385.5" />
              <mxPoint x="870" y="385.5" />
            </Array>
            <mxPoint x="850" y="386" as="sourcePoint" />
            <mxPoint x="910" y="385.5" as="targetPoint" />
          </mxGeometry>
        </mxCell>
      </root>
    </mxGraphModel>
  </diagram>
</mxfile>
